<svg width="18" height="18" viewBox="0 0 18 18" fill="none" xmlns="http://www.w3.org/2000/svg">
<circle cx="9.5625" cy="9.5625" r="6.1875" fill="white"/>
<path fill-rule="evenodd" clip-rule="evenodd" d="M9 0C4.03729 0 0 4.03729 0 9C0 13.9627 4.03729 18 9 18C13.9627 18 18 13.9627 18 9C18 4.03729 13.9627 0 9 0ZM9.00413 11.9604C9.58966 11.9604 10.063 12.4337 10.063 13.0192C10.063 13.6047 9.58966 14.078 9.00413 14.078C8.4186 14.078 7.94001 13.6047 7.94001 13.0192C7.94001 12.4337 8.40907 11.9604 8.99354 11.9604H9.00413ZM8.99375 4.18659C9.43211 4.18659 9.78787 4.54235 9.78787 4.98071V9.65965C9.78787 10.098 9.43211 10.4538 8.99375 10.4538C8.5554 10.4538 8.19963 10.098 8.19963 9.65965V4.98071C8.19963 4.54235 8.5554 4.18659 8.99375 4.18659Z" fill="#FA5252"/>
</svg>
