<svg width="48" height="48" viewBox="0 0 48 48" fill="none" xmlns="http://www.w3.org/2000/svg">
<rect x="8" y="8" width="32" height="32" rx="4" stroke="#07A3C6" stroke-width="2"/>
<path fill-rule="evenodd" clip-rule="evenodd" d="M20.4436 16.8886C20.4436 18.8532 18.8527 20.4441 16.8881 20.4441C14.9254 20.4441 13.3325 18.8532 13.3325 16.8886C13.3325 14.924 14.9254 13.333 16.8881 13.333C18.8508 13.3349 20.4417 14.9259 20.4436 16.8886Z" stroke="#07A3C6" stroke-width="2" stroke-linecap="round" stroke-linejoin="round"/>
<path d="M8 32.8893L12.8471 29.254C14.2038 28.2365 16.0548 28.1851 17.4659 29.1258L17.9594 29.4548C19.4333 30.4375 21.378 30.3336 22.7389 29.1995L28.7618 24.1804C30.1486 23.0248 32.1375 22.9412 33.6164 23.9764L40 28.4449" stroke="#07A3C6" stroke-width="2"/>
</svg>
