<svg width="18" height="18" viewBox="0 0 18 18" fill="none" xmlns="http://www.w3.org/2000/svg">
<path d="M10.0877 7.65632L7.97702 7.92086L7.90164 8.27125L8.31695 8.34664C8.58707 8.41155 8.64081 8.50857 8.58218 8.77869L7.90164 11.9734C7.72365 12.7991 7.99936 13.1879 8.6464 13.1879C9.14895 13.1879 9.73107 12.9562 9.99561 12.6372L10.0766 12.254C9.89301 12.4159 9.62288 12.4808 9.4449 12.4808C9.19153 12.4808 9.10009 12.3028 9.16431 11.9894L10.0877 7.65632ZM10.1513 5.73336C10.1513 5.97772 10.0542 6.21206 9.88141 6.38485C9.70862 6.55764 9.47427 6.65471 9.22992 6.65471C8.98556 6.65471 8.75121 6.55764 8.57843 6.38485C8.40564 6.21206 8.30857 5.97772 8.30857 5.73336C8.30857 5.489 8.40564 5.25465 8.57843 5.08187C8.75121 4.90908 8.98556 4.81201 9.22992 4.81201C9.47427 4.81201 9.70862 4.90908 9.88141 5.08187C10.0542 5.25465 10.1513 5.489 10.1513 5.73336Z" fill="#53B1FD"/>
<circle cx="9" cy="9" r="6.1875" stroke="#53B1FD" stroke-width="1.125"/>
</svg>
